<svg xmlns="http://www.w3.org/2000/svg" xmlns:xlink="http://www.w3.org/1999/xlink" width="512" zoomAndPan="magnify" viewBox="0 0 384 383.999986" height="512" preserveAspectRatio="xMidYMid meet" version="1.0"><defs><clipPath id="ad5b04b2c8"><path d="M 40.894531 38.398438 L 343.144531 38.398438 L 343.144531 345.898438 L 40.894531 345.898438 Z M 40.894531 38.398438 " clip-rule="nonzero"/></clipPath></defs><g clip-path="url(#ad5b04b2c8)"><path fill="#ffffff" d="M 343.097656 345.515625 L 314.566406 345.515625 L 314.566406 104.800781 L 273.574219 104.800781 L 189.410156 196.253906 L 89.515625 82.128906 L 89.515625 38.480469 L 189.410156 151.582031 L 260.160156 76.203125 L 343.097656 76.203125 Z M 289.644531 139.667969 L 267.785156 139.667969 L 189.683594 232.617188 L 42.667969 60.335938 L 42.667969 61.902344 L 41.78125 60.335938 L 41.78125 102.488281 L 40.894531 102.488281 L 41.78125 103.507812 L 41.78125 345.449219 L 70.3125 345.449219 L 70.3125 137.011719 L 189.75 276.945312 L 261.113281 192.03125 L 261.113281 345.449219 L 289.644531 345.449219 Z M 118.046875 217.5 L 89.515625 185.628906 L 89.515625 345.449219 L 118.046875 345.449219 Z M 118.046875 217.5 " fill-opacity="1" fill-rule="nonzero"/></g></svg>