<svg xmlns="http://www.w3.org/2000/svg" xmlns:xlink="http://www.w3.org/1999/xlink" width="460" zoomAndPan="magnify" viewBox="0 0 345 74.999997" height="100" preserveAspectRatio="xMidYMid meet" version="1.0"><defs><g/><clipPath id="c7d527b8bb"><path d="M 29.894531 7.5 L 89 7.5 L 89 67.5 L 29.894531 67.5 Z M 29.894531 7.5 " clip-rule="nonzero"/></clipPath></defs><g clip-path="url(#c7d527b8bb)"><path fill="#ffffff" d="M 88.910156 67.480469 L 83.335938 67.480469 L 83.335938 20.472656 L 75.332031 20.472656 L 58.894531 38.332031 L 39.386719 16.042969 L 39.386719 7.519531 L 58.894531 29.609375 L 72.710938 14.886719 L 88.910156 14.886719 Z M 78.46875 27.28125 L 74.203125 27.28125 L 58.949219 45.433594 L 30.238281 11.789062 L 30.238281 12.09375 L 30.066406 11.789062 L 30.066406 20.019531 L 29.894531 20.019531 L 30.066406 20.21875 L 30.066406 67.464844 L 35.636719 67.464844 L 35.636719 26.761719 L 58.960938 54.089844 L 72.898438 37.507812 L 72.898438 67.464844 L 78.46875 67.464844 Z M 44.960938 42.480469 L 39.386719 36.257812 L 39.386719 67.464844 L 44.960938 67.464844 Z M 44.960938 42.480469 " fill-opacity="1" fill-rule="nonzero"/></g><path stroke-linecap="butt" transform="matrix(0, 0.75, -0.75, 0, 117.368018, 4.628905)" fill="none" stroke-linejoin="miter" d="M 0.00000195737 0.501108 L 87.656259 0.501108 " stroke="#ffffff" stroke-width="1" stroke-opacity="1" stroke-miterlimit="4"/><g fill="#ffffff" fill-opacity="1"><g transform="translate(134.95865, 39.873482)"><g><path d="M 2.25 -20.453125 L 4.5 -20.453125 L 12.78125 -9.5625 L 20.96875 -20.453125 L 23.21875 -20.453125 L 23.21875 0 L 18.84375 0 L 18.84375 -11.1875 L 13.59375 -4.265625 L 11.84375 -4.265625 L 6.625 -11.15625 L 6.625 0 L 2.25 0 Z M 2.25 -20.453125 "/></g></g></g><g fill="#ffffff" fill-opacity="1"><g transform="translate(160.418754, 39.873482)"><g><path d="M 5.515625 0.421875 C 4.816406 0.421875 4.175781 0.3125 3.59375 0.09375 C 3.019531 -0.125 2.519531 -0.425781 2.09375 -0.8125 C 1.675781 -1.207031 1.347656 -1.671875 1.109375 -2.203125 C 0.867188 -2.734375 0.75 -3.3125 0.75 -3.9375 C 0.75 -4.59375 0.882812 -5.203125 1.15625 -5.765625 C 1.425781 -6.335938 1.8125 -6.832031 2.3125 -7.25 C 2.8125 -7.675781 3.394531 -8.003906 4.0625 -8.234375 C 4.726562 -8.460938 5.472656 -8.578125 6.296875 -8.578125 C 7.578125 -8.578125 8.726562 -8.296875 9.75 -7.734375 L 9.75 -8.015625 C 9.75 -8.828125 9.476562 -9.476562 8.9375 -9.96875 C 8.394531 -10.457031 7.707031 -10.703125 6.875 -10.703125 C 5.707031 -10.703125 4.753906 -10.210938 4.015625 -9.234375 L 1.625 -12.03125 C 2.457031 -12.789062 3.332031 -13.34375 4.25 -13.6875 C 5.175781 -14.039062 6.207031 -14.21875 7.34375 -14.21875 C 8.3125 -14.21875 9.179688 -14.0625 9.953125 -13.75 C 10.734375 -13.445312 11.410156 -13.019531 11.984375 -12.46875 C 12.554688 -11.914062 12.992188 -11.257812 13.296875 -10.5 C 13.609375 -9.738281 13.765625 -8.898438 13.765625 -7.984375 L 13.765625 0 L 9.75 0 L 9.75 -1.40625 C 9.164062 -0.75 8.535156 -0.28125 7.859375 0 C 7.179688 0.28125 6.398438 0.421875 5.515625 0.421875 Z M 6.8125 -2.609375 C 7.59375 -2.609375 8.25 -2.820312 8.78125 -3.25 C 9.320312 -3.6875 9.644531 -4.253906 9.75 -4.953125 C 8.832031 -5.546875 7.910156 -5.84375 6.984375 -5.84375 C 6.285156 -5.84375 5.738281 -5.691406 5.34375 -5.390625 C 4.957031 -5.097656 4.765625 -4.703125 4.765625 -4.203125 C 4.765625 -3.703125 4.941406 -3.3125 5.296875 -3.03125 C 5.660156 -2.75 6.164062 -2.609375 6.8125 -2.609375 Z M 6.8125 -2.609375 "/></g></g></g><g fill="#ffffff" fill-opacity="1"><g transform="translate(175.682825, 39.873482)"><g><path d="M 1.65625 -13.796875 L 5.515625 -13.796875 L 5.515625 -12.03125 C 6.316406 -13.488281 7.53125 -14.21875 9.15625 -14.21875 C 9.375 -14.21875 9.582031 -14.207031 9.78125 -14.1875 C 9.976562 -14.164062 10.128906 -14.132812 10.234375 -14.09375 L 9.75 -9.84375 C 9.226562 -10.019531 8.75 -10.109375 8.3125 -10.109375 C 7.46875 -10.109375 6.816406 -9.847656 6.359375 -9.328125 C 5.898438 -8.804688 5.671875 -8.097656 5.671875 -7.203125 L 5.671875 0 L 1.65625 0 Z M 1.65625 -13.796875 "/></g></g></g><g fill="#ffffff" fill-opacity="1"><g transform="translate(186.058794, 39.873482)"><g><path d="M 1.703125 -13.796875 L 5.734375 -13.796875 L 5.734375 0 L 1.703125 0 Z M 3.71875 -15.9375 C 3.0625 -15.9375 2.5 -16.164062 2.03125 -16.625 C 1.570312 -17.082031 1.34375 -17.640625 1.34375 -18.296875 C 1.34375 -18.941406 1.570312 -19.492188 2.03125 -19.953125 C 2.5 -20.410156 3.0625 -20.640625 3.71875 -20.640625 C 4.375 -20.640625 4.925781 -20.410156 5.375 -19.953125 C 5.832031 -19.492188 6.0625 -18.941406 6.0625 -18.296875 C 6.0625 -17.640625 5.832031 -17.082031 5.375 -16.625 C 4.925781 -16.164062 4.375 -15.9375 3.71875 -15.9375 Z M 3.71875 -15.9375 "/></g></g></g><g fill="#ffffff" fill-opacity="1"><g transform="translate(193.465913, 39.873482)"><g><path d="M 8.3125 0.421875 C 7.269531 0.421875 6.296875 0.234375 5.390625 -0.140625 C 4.492188 -0.523438 3.710938 -1.046875 3.046875 -1.703125 C 2.378906 -2.367188 1.851562 -3.144531 1.46875 -4.03125 C 1.09375 -4.925781 0.90625 -5.882812 0.90625 -6.90625 C 0.90625 -7.925781 1.09375 -8.878906 1.46875 -9.765625 C 1.851562 -10.648438 2.378906 -11.421875 3.046875 -12.078125 C 3.710938 -12.742188 4.492188 -13.265625 5.390625 -13.640625 C 6.296875 -14.023438 7.269531 -14.21875 8.3125 -14.21875 C 9.351562 -14.21875 10.320312 -14.023438 11.21875 -13.640625 C 12.113281 -13.265625 12.894531 -12.742188 13.5625 -12.078125 C 14.238281 -11.421875 14.765625 -10.648438 15.140625 -9.765625 C 15.523438 -8.878906 15.71875 -7.925781 15.71875 -6.90625 C 15.71875 -5.882812 15.523438 -4.925781 15.140625 -4.03125 C 14.765625 -3.144531 14.238281 -2.367188 13.5625 -1.703125 C 12.894531 -1.046875 12.113281 -0.523438 11.21875 -0.140625 C 10.320312 0.234375 9.351562 0.421875 8.3125 0.421875 Z M 8.3125 -3.390625 C 9.289062 -3.390625 10.082031 -3.710938 10.6875 -4.359375 C 11.300781 -5.015625 11.609375 -5.875 11.609375 -6.9375 C 11.609375 -7.945312 11.300781 -8.773438 10.6875 -9.421875 C 10.082031 -10.078125 9.289062 -10.40625 8.3125 -10.40625 C 7.332031 -10.40625 6.535156 -10.078125 5.921875 -9.421875 C 5.316406 -8.773438 5.015625 -7.945312 5.015625 -6.9375 C 5.015625 -5.875 5.316406 -5.015625 5.921875 -4.359375 C 6.535156 -3.710938 7.332031 -3.390625 8.3125 -3.390625 Z M 8.3125 -3.390625 "/></g></g></g><g fill="#ffffff" fill-opacity="1"><g transform="translate(210.07946, 39.873482)"><g/></g></g><g fill="#ffffff" fill-opacity="1"><g transform="translate(216.676898, 39.873482)"><g><path d="M 2.25 -20.453125 L 4.5 -20.453125 L 12.78125 -9.5625 L 20.96875 -20.453125 L 23.21875 -20.453125 L 23.21875 0 L 18.84375 0 L 18.84375 -11.1875 L 13.59375 -4.265625 L 11.84375 -4.265625 L 6.625 -11.15625 L 6.625 0 L 2.25 0 Z M 2.25 -20.453125 "/></g></g></g><g fill="#ffffff" fill-opacity="1"><g transform="translate(242.137002, 39.873482)"><g><path d="M 1.703125 -13.796875 L 5.734375 -13.796875 L 5.734375 0 L 1.703125 0 Z M 3.71875 -15.9375 C 3.0625 -15.9375 2.5 -16.164062 2.03125 -16.625 C 1.570312 -17.082031 1.34375 -17.640625 1.34375 -18.296875 C 1.34375 -18.941406 1.570312 -19.492188 2.03125 -19.953125 C 2.5 -20.410156 3.0625 -20.640625 3.71875 -20.640625 C 4.375 -20.640625 4.925781 -20.410156 5.375 -19.953125 C 5.832031 -19.492188 6.0625 -18.941406 6.0625 -18.296875 C 6.0625 -17.640625 5.832031 -17.082031 5.375 -16.625 C 4.925781 -16.164062 4.375 -15.9375 3.71875 -15.9375 Z M 3.71875 -15.9375 "/></g></g></g><g fill="#ffffff" fill-opacity="1"><g transform="translate(249.544121, 39.873482)"><g><path d="M 1.65625 -13.796875 L 5.515625 -13.796875 L 5.515625 -12.03125 C 6.316406 -13.488281 7.53125 -14.21875 9.15625 -14.21875 C 9.375 -14.21875 9.582031 -14.207031 9.78125 -14.1875 C 9.976562 -14.164062 10.128906 -14.132812 10.234375 -14.09375 L 9.75 -9.84375 C 9.226562 -10.019531 8.75 -10.109375 8.3125 -10.109375 C 7.46875 -10.109375 6.816406 -9.847656 6.359375 -9.328125 C 5.898438 -8.804688 5.671875 -8.097656 5.671875 -7.203125 L 5.671875 0 L 1.65625 0 Z M 1.65625 -13.796875 "/></g></g></g><g fill="#ffffff" fill-opacity="1"><g transform="translate(259.920089, 39.873482)"><g><path d="M 5.515625 0.421875 C 4.816406 0.421875 4.175781 0.3125 3.59375 0.09375 C 3.019531 -0.125 2.519531 -0.425781 2.09375 -0.8125 C 1.675781 -1.207031 1.347656 -1.671875 1.109375 -2.203125 C 0.867188 -2.734375 0.75 -3.3125 0.75 -3.9375 C 0.75 -4.59375 0.882812 -5.203125 1.15625 -5.765625 C 1.425781 -6.335938 1.8125 -6.832031 2.3125 -7.25 C 2.8125 -7.675781 3.394531 -8.003906 4.0625 -8.234375 C 4.726562 -8.460938 5.472656 -8.578125 6.296875 -8.578125 C 7.578125 -8.578125 8.726562 -8.296875 9.75 -7.734375 L 9.75 -8.015625 C 9.75 -8.828125 9.476562 -9.476562 8.9375 -9.96875 C 8.394531 -10.457031 7.707031 -10.703125 6.875 -10.703125 C 5.707031 -10.703125 4.753906 -10.210938 4.015625 -9.234375 L 1.625 -12.03125 C 2.457031 -12.789062 3.332031 -13.34375 4.25 -13.6875 C 5.175781 -14.039062 6.207031 -14.21875 7.34375 -14.21875 C 8.3125 -14.21875 9.179688 -14.0625 9.953125 -13.75 C 10.734375 -13.445312 11.410156 -13.019531 11.984375 -12.46875 C 12.554688 -11.914062 12.992188 -11.257812 13.296875 -10.5 C 13.609375 -9.738281 13.765625 -8.898438 13.765625 -7.984375 L 13.765625 0 L 9.75 0 L 9.75 -1.40625 C 9.164062 -0.75 8.535156 -0.28125 7.859375 0 C 7.179688 0.28125 6.398438 0.421875 5.515625 0.421875 Z M 6.8125 -2.609375 C 7.59375 -2.609375 8.25 -2.820312 8.78125 -3.25 C 9.320312 -3.6875 9.644531 -4.253906 9.75 -4.953125 C 8.832031 -5.546875 7.910156 -5.84375 6.984375 -5.84375 C 6.285156 -5.84375 5.738281 -5.691406 5.34375 -5.390625 C 4.957031 -5.097656 4.765625 -4.703125 4.765625 -4.203125 C 4.765625 -3.703125 4.941406 -3.3125 5.296875 -3.03125 C 5.660156 -2.75 6.164062 -2.609375 6.8125 -2.609375 Z M 6.8125 -2.609375 "/></g></g></g><g fill="#ffffff" fill-opacity="1"><g transform="translate(275.184161, 39.873482)"><g><path d="M 1.65625 -21.296875 L 5.671875 -21.296875 L 5.671875 0 L 1.65625 0 Z M 1.65625 -21.296875 "/></g></g></g><g fill="#ffffff" fill-opacity="1"><g transform="translate(282.501318, 39.873482)"><g><path d="M 1.65625 -21.296875 L 5.671875 -21.296875 L 5.671875 0 L 1.65625 0 Z M 1.65625 -21.296875 "/></g></g></g><g fill="#ffffff" fill-opacity="1"><g transform="translate(289.818475, 39.873482)"><g><path d="M 8.34375 0.421875 C 7.238281 0.421875 6.226562 0.242188 5.3125 -0.109375 C 4.40625 -0.472656 3.625 -0.972656 2.96875 -1.609375 C 2.3125 -2.253906 1.800781 -3.019531 1.4375 -3.90625 C 1.082031 -4.800781 0.90625 -5.78125 0.90625 -6.84375 C 0.90625 -7.90625 1.082031 -8.882812 1.4375 -9.78125 C 1.800781 -10.675781 2.300781 -11.453125 2.9375 -12.109375 C 3.582031 -12.773438 4.34375 -13.289062 5.21875 -13.65625 C 6.101562 -14.03125 7.0625 -14.21875 8.09375 -14.21875 C 9.070312 -14.21875 9.976562 -14.050781 10.8125 -13.71875 C 11.644531 -13.394531 12.367188 -12.929688 12.984375 -12.328125 C 13.609375 -11.734375 14.09375 -11.023438 14.4375 -10.203125 C 14.789062 -9.378906 14.96875 -8.476562 14.96875 -7.5 C 14.96875 -7.132812 14.957031 -6.832031 14.9375 -6.59375 C 14.914062 -6.351562 14.875 -6.066406 14.8125 -5.734375 L 5.0625 -5.734375 C 5.269531 -4.890625 5.6875 -4.226562 6.3125 -3.75 C 6.945312 -3.269531 7.753906 -3.03125 8.734375 -3.03125 C 9.429688 -3.03125 10.085938 -3.160156 10.703125 -3.421875 C 11.328125 -3.679688 11.910156 -4.101562 12.453125 -4.6875 L 14.578125 -2.3125 C 13.796875 -1.40625 12.863281 -0.722656 11.78125 -0.265625 C 10.707031 0.191406 9.5625 0.421875 8.34375 0.421875 Z M 10.984375 -8.515625 C 10.796875 -9.359375 10.445312 -10 9.9375 -10.4375 C 9.4375 -10.875 8.804688 -11.09375 8.046875 -11.09375 C 7.265625 -11.09375 6.609375 -10.863281 6.078125 -10.40625 C 5.546875 -9.945312 5.191406 -9.316406 5.015625 -8.515625 Z M 10.984375 -8.515625 "/></g></g></g><g fill="#ffffff" fill-opacity="1"><g transform="translate(305.682308, 39.873482)"><g><path d="M 6.90625 0.421875 C 5.625 0.421875 4.421875 0.210938 3.296875 -0.203125 C 2.179688 -0.628906 1.234375 -1.242188 0.453125 -2.046875 L 2.640625 -4.796875 C 3.335938 -4.140625 4.0625 -3.640625 4.8125 -3.296875 C 5.5625 -2.960938 6.304688 -2.796875 7.046875 -2.796875 C 7.628906 -2.796875 8.070312 -2.882812 8.375 -3.0625 C 8.6875 -3.238281 8.84375 -3.5 8.84375 -3.84375 C 8.84375 -4.175781 8.640625 -4.445312 8.234375 -4.65625 C 7.828125 -4.875 7.101562 -5.09375 6.0625 -5.3125 C 2.882812 -6.03125 1.296875 -7.5 1.296875 -9.71875 C 1.296875 -10.375 1.425781 -10.984375 1.6875 -11.546875 C 1.957031 -12.109375 2.34375 -12.582031 2.84375 -12.96875 C 3.34375 -13.363281 3.941406 -13.671875 4.640625 -13.890625 C 5.347656 -14.109375 6.128906 -14.21875 6.984375 -14.21875 C 8.066406 -14.21875 9.113281 -14.039062 10.125 -13.6875 C 11.132812 -13.34375 12.039062 -12.820312 12.84375 -12.125 L 10.796875 -9.328125 C 10.078125 -9.953125 9.398438 -10.390625 8.765625 -10.640625 C 8.140625 -10.890625 7.519531 -11.015625 6.90625 -11.015625 C 5.882812 -11.015625 5.375 -10.710938 5.375 -10.109375 C 5.375 -9.785156 5.566406 -9.523438 5.953125 -9.328125 C 6.347656 -9.128906 7.0625 -8.910156 8.09375 -8.671875 C 9.757812 -8.265625 10.984375 -7.6875 11.765625 -6.9375 C 12.546875 -6.1875 12.9375 -5.253906 12.9375 -4.140625 C 12.9375 -3.441406 12.789062 -2.8125 12.5 -2.25 C 12.207031 -1.6875 11.800781 -1.207031 11.28125 -0.8125 C 10.757812 -0.425781 10.125 -0.125 9.375 0.09375 C 8.625 0.3125 7.800781 0.421875 6.90625 0.421875 Z M 6.90625 0.421875 "/></g></g></g><g fill="#ffffff" fill-opacity="1"><g transform="translate(150.778961, 56.67652)"><g><path d="M 1.171875 -8.703125 L 5.65625 -8.703125 L 5.65625 -7.859375 L 2.078125 -7.859375 L 2.078125 -4.6875 L 4.8125 -4.6875 L 4.8125 -3.828125 L 2.078125 -3.828125 L 2.078125 0 L 1.171875 0 Z M 1.171875 -8.703125 "/></g></g></g><g fill="#ffffff" fill-opacity="1"><g transform="translate(156.952064, 56.67652)"><g><path d="M 3.078125 0.125 C 2.753906 0.125 2.453125 0.0664062 2.171875 -0.046875 C 1.898438 -0.171875 1.664062 -0.34375 1.46875 -0.5625 C 1.28125 -0.78125 1.128906 -1.035156 1.015625 -1.328125 C 0.898438 -1.617188 0.84375 -1.941406 0.84375 -2.296875 L 0.84375 -5.984375 L 1.6875 -5.984375 L 1.6875 -2.421875 C 1.6875 -1.867188 1.832031 -1.4375 2.125 -1.125 C 2.414062 -0.8125 2.804688 -0.65625 3.296875 -0.65625 C 3.796875 -0.65625 4.191406 -0.816406 4.484375 -1.140625 C 4.785156 -1.460938 4.9375 -1.890625 4.9375 -2.421875 L 4.9375 -5.984375 L 5.78125 -5.984375 L 5.78125 0 L 4.9375 0 L 4.9375 -0.921875 C 4.457031 -0.222656 3.835938 0.125 3.078125 0.125 Z M 3.078125 0.125 "/></g></g></g><g fill="#ffffff" fill-opacity="1"><g transform="translate(163.645015, 56.67652)"><g><path d="M 0.90625 -9.234375 L 1.75 -9.234375 L 1.75 0 L 0.90625 0 Z M 0.90625 -9.234375 "/></g></g></g><g fill="#ffffff" fill-opacity="1"><g transform="translate(166.309199, 56.67652)"><g><path d="M 0.90625 -9.234375 L 1.75 -9.234375 L 1.75 0 L 0.90625 0 Z M 0.90625 -9.234375 "/></g></g></g><g fill="#ffffff" fill-opacity="1"><g transform="translate(168.973383, 56.67652)"><g><path d="M 0.515625 -3.828125 L 3.375 -3.828125 L 3.375 -2.921875 L 0.515625 -2.921875 Z M 0.515625 -3.828125 "/></g></g></g><g fill="#ffffff" fill-opacity="1"><g transform="translate(172.872191, 56.67652)"><g><path d="M 3.265625 0.125 C 2.671875 0.125 2.125 -0.015625 1.625 -0.296875 C 1.132812 -0.578125 0.722656 -0.984375 0.390625 -1.515625 L 1.09375 -2.078125 C 1.695312 -1.160156 2.425781 -0.703125 3.28125 -0.703125 C 3.789062 -0.703125 4.203125 -0.835938 4.515625 -1.109375 C 4.828125 -1.390625 4.984375 -1.757812 4.984375 -2.21875 C 4.984375 -2.625 4.84375 -2.96875 4.5625 -3.25 C 4.28125 -3.53125 3.828125 -3.800781 3.203125 -4.0625 C 2.410156 -4.363281 1.835938 -4.71875 1.484375 -5.125 C 1.140625 -5.53125 0.96875 -6.015625 0.96875 -6.578125 C 0.96875 -6.910156 1.019531 -7.21875 1.125 -7.5 C 1.238281 -7.78125 1.398438 -8.019531 1.609375 -8.21875 C 1.816406 -8.414062 2.066406 -8.566406 2.359375 -8.671875 C 2.648438 -8.785156 2.972656 -8.84375 3.328125 -8.84375 C 4.328125 -8.84375 5.148438 -8.398438 5.796875 -7.515625 L 5.09375 -6.9375 C 4.832031 -7.300781 4.554688 -7.566406 4.265625 -7.734375 C 3.972656 -7.910156 3.65625 -8 3.3125 -8 C 2.875 -8 2.523438 -7.875 2.265625 -7.625 C 2.003906 -7.382812 1.875 -7.0625 1.875 -6.65625 C 1.875 -6.269531 2.003906 -5.9375 2.265625 -5.65625 C 2.535156 -5.382812 2.976562 -5.128906 3.59375 -4.890625 C 4.375 -4.585938 4.953125 -4.222656 5.328125 -3.796875 C 5.703125 -3.378906 5.890625 -2.878906 5.890625 -2.296875 C 5.890625 -1.941406 5.820312 -1.613281 5.6875 -1.3125 C 5.5625 -1.019531 5.378906 -0.765625 5.140625 -0.546875 C 4.910156 -0.328125 4.632812 -0.160156 4.3125 -0.046875 C 3.988281 0.0664062 3.640625 0.125 3.265625 0.125 Z M 3.265625 0.125 "/></g></g></g><g fill="#ffffff" fill-opacity="1"><g transform="translate(179.409193, 56.67652)"><g><path d="M 2.96875 0.125 C 2.46875 0.125 2.070312 -0.0234375 1.78125 -0.328125 C 1.5 -0.640625 1.359375 -1.0625 1.359375 -1.59375 L 1.359375 -5.21875 L 0.453125 -5.21875 L 0.453125 -5.984375 L 1.359375 -5.984375 L 1.359375 -7.5625 L 2.203125 -7.5625 L 2.203125 -5.984375 L 3.984375 -5.984375 L 3.984375 -5.21875 L 2.203125 -5.21875 L 2.203125 -1.59375 C 2.203125 -1.28125 2.28125 -1.039062 2.4375 -0.875 C 2.59375 -0.707031 2.804688 -0.625 3.078125 -0.625 C 3.429688 -0.625 3.734375 -0.765625 3.984375 -1.046875 L 4.40625 -0.546875 C 4.226562 -0.328125 4.019531 -0.160156 3.78125 -0.046875 C 3.539062 0.0664062 3.269531 0.125 2.96875 0.125 Z M 2.96875 0.125 "/></g></g></g><g fill="#ffffff" fill-opacity="1"><g transform="translate(184.009786, 56.67652)"><g><path d="M 2.546875 0.125 C 2.242188 0.125 1.960938 0.0820312 1.703125 0 C 1.453125 -0.09375 1.234375 -0.222656 1.046875 -0.390625 C 0.859375 -0.554688 0.710938 -0.753906 0.609375 -0.984375 C 0.503906 -1.210938 0.453125 -1.460938 0.453125 -1.734375 C 0.453125 -2.015625 0.507812 -2.269531 0.625 -2.5 C 0.75 -2.738281 0.914062 -2.941406 1.125 -3.109375 C 1.332031 -3.285156 1.578125 -3.421875 1.859375 -3.515625 C 2.140625 -3.617188 2.441406 -3.671875 2.765625 -3.671875 C 3.128906 -3.671875 3.445312 -3.628906 3.71875 -3.546875 C 4 -3.472656 4.273438 -3.359375 4.546875 -3.203125 L 4.546875 -3.578125 C 4.546875 -4.109375 4.398438 -4.535156 4.109375 -4.859375 C 3.816406 -5.191406 3.4375 -5.359375 2.96875 -5.359375 C 2.351562 -5.359375 1.847656 -5.085938 1.453125 -4.546875 L 0.828125 -5.0625 C 1.117188 -5.40625 1.445312 -5.664062 1.8125 -5.84375 C 2.1875 -6.019531 2.582031 -6.109375 3 -6.109375 C 3.34375 -6.109375 3.660156 -6.046875 3.953125 -5.921875 C 4.253906 -5.804688 4.507812 -5.640625 4.71875 -5.421875 C 4.9375 -5.203125 5.101562 -4.941406 5.21875 -4.640625 C 5.332031 -4.347656 5.390625 -4.023438 5.390625 -3.671875 L 5.390625 0 L 4.546875 0 L 4.546875 -0.9375 C 4.296875 -0.570312 4 -0.300781 3.65625 -0.125 C 3.320312 0.0390625 2.953125 0.125 2.546875 0.125 Z M 2.703125 -0.625 C 2.972656 -0.625 3.21875 -0.664062 3.4375 -0.75 C 3.664062 -0.84375 3.863281 -0.960938 4.03125 -1.109375 C 4.195312 -1.265625 4.320312 -1.445312 4.40625 -1.65625 C 4.5 -1.875 4.546875 -2.113281 4.546875 -2.375 C 4.265625 -2.570312 3.984375 -2.71875 3.703125 -2.8125 C 3.429688 -2.90625 3.113281 -2.953125 2.75 -2.953125 C 2.300781 -2.953125 1.945312 -2.84375 1.6875 -2.625 C 1.425781 -2.414062 1.296875 -2.128906 1.296875 -1.765625 C 1.296875 -1.410156 1.421875 -1.128906 1.671875 -0.921875 C 1.921875 -0.722656 2.265625 -0.625 2.703125 -0.625 Z M 2.703125 -0.625 "/></g></g></g><g fill="#ffffff" fill-opacity="1"><g transform="translate(190.24788, 56.67652)"><g><path d="M 3.640625 0.125 C 3.210938 0.125 2.8125 0.046875 2.4375 -0.109375 C 2.070312 -0.273438 1.75 -0.5 1.46875 -0.78125 C 1.195312 -1.0625 0.976562 -1.390625 0.8125 -1.765625 C 0.65625 -2.148438 0.578125 -2.554688 0.578125 -2.984375 C 0.578125 -3.410156 0.65625 -3.8125 0.8125 -4.1875 C 0.976562 -4.570312 1.195312 -4.90625 1.46875 -5.1875 C 1.75 -5.46875 2.070312 -5.691406 2.4375 -5.859375 C 2.800781 -6.023438 3.195312 -6.109375 3.625 -6.109375 C 4.125 -6.109375 4.582031 -6 5 -5.78125 C 5.425781 -5.5625 5.78125 -5.257812 6.0625 -4.875 L 5.453125 -4.375 C 5.222656 -4.675781 4.945312 -4.90625 4.625 -5.0625 C 4.3125 -5.226562 3.972656 -5.3125 3.609375 -5.3125 C 3.296875 -5.3125 3.007812 -5.253906 2.75 -5.140625 C 2.488281 -5.023438 2.265625 -4.863281 2.078125 -4.65625 C 1.890625 -4.445312 1.738281 -4.203125 1.625 -3.921875 C 1.519531 -3.640625 1.46875 -3.332031 1.46875 -3 C 1.46875 -2.664062 1.519531 -2.351562 1.625 -2.0625 C 1.738281 -1.78125 1.890625 -1.535156 2.078125 -1.328125 C 2.273438 -1.117188 2.507812 -0.953125 2.78125 -0.828125 C 3.050781 -0.710938 3.347656 -0.65625 3.671875 -0.65625 C 4.046875 -0.65625 4.394531 -0.734375 4.71875 -0.890625 C 5.039062 -1.054688 5.3125 -1.289062 5.53125 -1.59375 L 6.09375 -1.140625 C 5.820312 -0.753906 5.472656 -0.445312 5.046875 -0.21875 C 4.617188 0.0078125 4.148438 0.125 3.640625 0.125 Z M 3.640625 0.125 "/></g></g></g><g fill="#ffffff" fill-opacity="1"><g transform="translate(196.797871, 56.67652)"><g><path d="M 0.90625 -9.234375 L 1.75 -9.234375 L 1.75 -3.1875 L 4.453125 -5.984375 L 5.453125 -5.984375 L 2.671875 -3.140625 L 5.609375 0 L 4.5 0 L 1.75 -2.90625 L 1.75 0 L 0.90625 0 Z M 0.90625 -9.234375 "/></g></g></g><g fill="#ffffff" fill-opacity="1"><g transform="translate(202.477127, 56.67652)"><g/></g></g><g fill="#ffffff" fill-opacity="1"><g transform="translate(205.33625, 56.67652)"><g><path d="M 3.265625 0.125 C 2.671875 0.125 2.125 -0.015625 1.625 -0.296875 C 1.132812 -0.578125 0.722656 -0.984375 0.390625 -1.515625 L 1.09375 -2.078125 C 1.695312 -1.160156 2.425781 -0.703125 3.28125 -0.703125 C 3.789062 -0.703125 4.203125 -0.835938 4.515625 -1.109375 C 4.828125 -1.390625 4.984375 -1.757812 4.984375 -2.21875 C 4.984375 -2.625 4.84375 -2.96875 4.5625 -3.25 C 4.28125 -3.53125 3.828125 -3.800781 3.203125 -4.0625 C 2.410156 -4.363281 1.835938 -4.71875 1.484375 -5.125 C 1.140625 -5.53125 0.96875 -6.015625 0.96875 -6.578125 C 0.96875 -6.910156 1.019531 -7.21875 1.125 -7.5 C 1.238281 -7.78125 1.398438 -8.019531 1.609375 -8.21875 C 1.816406 -8.414062 2.066406 -8.566406 2.359375 -8.671875 C 2.648438 -8.785156 2.972656 -8.84375 3.328125 -8.84375 C 4.328125 -8.84375 5.148438 -8.398438 5.796875 -7.515625 L 5.09375 -6.9375 C 4.832031 -7.300781 4.554688 -7.566406 4.265625 -7.734375 C 3.972656 -7.910156 3.65625 -8 3.3125 -8 C 2.875 -8 2.523438 -7.875 2.265625 -7.625 C 2.003906 -7.382812 1.875 -7.0625 1.875 -6.65625 C 1.875 -6.269531 2.003906 -5.9375 2.265625 -5.65625 C 2.535156 -5.382812 2.976562 -5.128906 3.59375 -4.890625 C 4.375 -4.585938 4.953125 -4.222656 5.328125 -3.796875 C 5.703125 -3.378906 5.890625 -2.878906 5.890625 -2.296875 C 5.890625 -1.941406 5.820312 -1.613281 5.6875 -1.3125 C 5.5625 -1.019531 5.378906 -0.765625 5.140625 -0.546875 C 4.910156 -0.328125 4.632812 -0.160156 4.3125 -0.046875 C 3.988281 0.0664062 3.640625 0.125 3.265625 0.125 Z M 3.265625 0.125 "/></g></g></g><g fill="#ffffff" fill-opacity="1"><g transform="translate(211.873252, 56.67652)"><g><path d="M 3.640625 0.125 C 3.210938 0.125 2.8125 0.046875 2.4375 -0.109375 C 2.070312 -0.273438 1.75 -0.5 1.46875 -0.78125 C 1.195312 -1.0625 0.976562 -1.390625 0.8125 -1.765625 C 0.65625 -2.148438 0.578125 -2.554688 0.578125 -2.984375 C 0.578125 -3.410156 0.65625 -3.8125 0.8125 -4.1875 C 0.976562 -4.570312 1.195312 -4.90625 1.46875 -5.1875 C 1.75 -5.46875 2.070312 -5.691406 2.4375 -5.859375 C 2.8125 -6.023438 3.210938 -6.109375 3.640625 -6.109375 C 4.066406 -6.109375 4.460938 -6.023438 4.828125 -5.859375 C 5.191406 -5.691406 5.515625 -5.46875 5.796875 -5.1875 C 6.078125 -4.90625 6.296875 -4.578125 6.453125 -4.203125 C 6.609375 -3.828125 6.6875 -3.421875 6.6875 -2.984375 C 6.6875 -2.554688 6.609375 -2.148438 6.453125 -1.765625 C 6.296875 -1.390625 6.078125 -1.0625 5.796875 -0.78125 C 5.515625 -0.5 5.191406 -0.273438 4.828125 -0.109375 C 4.460938 0.046875 4.066406 0.125 3.640625 0.125 Z M 3.640625 -0.65625 C 3.953125 -0.65625 4.238281 -0.710938 4.5 -0.828125 C 4.769531 -0.953125 5 -1.117188 5.1875 -1.328125 C 5.382812 -1.535156 5.535156 -1.78125 5.640625 -2.0625 C 5.753906 -2.34375 5.8125 -2.648438 5.8125 -2.984375 C 5.8125 -3.328125 5.753906 -3.640625 5.640625 -3.921875 C 5.535156 -4.203125 5.382812 -4.445312 5.1875 -4.65625 C 5 -4.863281 4.769531 -5.023438 4.5 -5.140625 C 4.238281 -5.253906 3.953125 -5.3125 3.640625 -5.3125 C 3.328125 -5.3125 3.035156 -5.253906 2.765625 -5.140625 C 2.503906 -5.023438 2.273438 -4.863281 2.078125 -4.65625 C 1.890625 -4.445312 1.738281 -4.203125 1.625 -3.921875 C 1.519531 -3.640625 1.46875 -3.328125 1.46875 -2.984375 C 1.46875 -2.648438 1.519531 -2.34375 1.625 -2.0625 C 1.738281 -1.78125 1.890625 -1.535156 2.078125 -1.328125 C 2.273438 -1.117188 2.503906 -0.953125 2.765625 -0.828125 C 3.035156 -0.710938 3.328125 -0.65625 3.640625 -0.65625 Z M 3.640625 -0.65625 "/></g></g></g><g fill="#ffffff" fill-opacity="1"><g transform="translate(219.151018, 56.67652)"><g><path d="M 1.359375 -5.21875 L 0.453125 -5.21875 L 0.453125 -5.984375 L 1.359375 -5.984375 L 1.359375 -7.515625 C 1.359375 -8.023438 1.507812 -8.4375 1.8125 -8.75 C 2.125 -9.070312 2.53125 -9.234375 3.03125 -9.234375 C 3.570312 -9.234375 4.035156 -9.03125 4.421875 -8.625 L 3.90625 -8.015625 C 3.613281 -8.328125 3.316406 -8.484375 3.015625 -8.484375 C 2.765625 -8.484375 2.566406 -8.394531 2.421875 -8.21875 C 2.273438 -8.039062 2.203125 -7.8125 2.203125 -7.53125 L 2.203125 -5.984375 L 3.90625 -5.984375 L 3.90625 -5.21875 L 2.203125 -5.21875 L 2.203125 0 L 1.359375 0 Z M 1.359375 -5.21875 "/></g></g></g><g fill="#ffffff" fill-opacity="1"><g transform="translate(223.244764, 56.67652)"><g><path d="M 2.96875 0.125 C 2.46875 0.125 2.070312 -0.0234375 1.78125 -0.328125 C 1.5 -0.640625 1.359375 -1.0625 1.359375 -1.59375 L 1.359375 -5.21875 L 0.453125 -5.21875 L 0.453125 -5.984375 L 1.359375 -5.984375 L 1.359375 -7.5625 L 2.203125 -7.5625 L 2.203125 -5.984375 L 3.984375 -5.984375 L 3.984375 -5.21875 L 2.203125 -5.21875 L 2.203125 -1.59375 C 2.203125 -1.28125 2.28125 -1.039062 2.4375 -0.875 C 2.59375 -0.707031 2.804688 -0.625 3.078125 -0.625 C 3.429688 -0.625 3.734375 -0.765625 3.984375 -1.046875 L 4.40625 -0.546875 C 4.226562 -0.328125 4.019531 -0.160156 3.78125 -0.046875 C 3.539062 0.0664062 3.269531 0.125 2.96875 0.125 Z M 2.96875 0.125 "/></g></g></g><g fill="#ffffff" fill-opacity="1"><g transform="translate(227.845357, 56.67652)"><g><path d="M 0.265625 -5.984375 L 1.15625 -5.984375 L 2.5 -1.734375 L 4.21875 -6.109375 L 4.46875 -6.109375 L 6.171875 -1.671875 L 7.609375 -5.984375 L 8.453125 -5.984375 L 6.34375 0.265625 L 6.078125 0.265625 L 4.3125 -4.34375 L 2.515625 0.265625 L 2.265625 0.265625 Z M 0.265625 -5.984375 "/></g></g></g><g fill="#ffffff" fill-opacity="1"><g transform="translate(236.552685, 56.67652)"><g><path d="M 2.546875 0.125 C 2.242188 0.125 1.960938 0.0820312 1.703125 0 C 1.453125 -0.09375 1.234375 -0.222656 1.046875 -0.390625 C 0.859375 -0.554688 0.710938 -0.753906 0.609375 -0.984375 C 0.503906 -1.210938 0.453125 -1.460938 0.453125 -1.734375 C 0.453125 -2.015625 0.507812 -2.269531 0.625 -2.5 C 0.75 -2.738281 0.914062 -2.941406 1.125 -3.109375 C 1.332031 -3.285156 1.578125 -3.421875 1.859375 -3.515625 C 2.140625 -3.617188 2.441406 -3.671875 2.765625 -3.671875 C 3.128906 -3.671875 3.445312 -3.628906 3.71875 -3.546875 C 4 -3.472656 4.273438 -3.359375 4.546875 -3.203125 L 4.546875 -3.578125 C 4.546875 -4.109375 4.398438 -4.535156 4.109375 -4.859375 C 3.816406 -5.191406 3.4375 -5.359375 2.96875 -5.359375 C 2.351562 -5.359375 1.847656 -5.085938 1.453125 -4.546875 L 0.828125 -5.0625 C 1.117188 -5.40625 1.445312 -5.664062 1.8125 -5.84375 C 2.1875 -6.019531 2.582031 -6.109375 3 -6.109375 C 3.34375 -6.109375 3.660156 -6.046875 3.953125 -5.921875 C 4.253906 -5.804688 4.507812 -5.640625 4.71875 -5.421875 C 4.9375 -5.203125 5.101562 -4.941406 5.21875 -4.640625 C 5.332031 -4.347656 5.390625 -4.023438 5.390625 -3.671875 L 5.390625 0 L 4.546875 0 L 4.546875 -0.9375 C 4.296875 -0.570312 4 -0.300781 3.65625 -0.125 C 3.320312 0.0390625 2.953125 0.125 2.546875 0.125 Z M 2.703125 -0.625 C 2.972656 -0.625 3.21875 -0.664062 3.4375 -0.75 C 3.664062 -0.84375 3.863281 -0.960938 4.03125 -1.109375 C 4.195312 -1.265625 4.320312 -1.445312 4.40625 -1.65625 C 4.5 -1.875 4.546875 -2.113281 4.546875 -2.375 C 4.265625 -2.570312 3.984375 -2.71875 3.703125 -2.8125 C 3.429688 -2.90625 3.113281 -2.953125 2.75 -2.953125 C 2.300781 -2.953125 1.945312 -2.84375 1.6875 -2.625 C 1.425781 -2.414062 1.296875 -2.128906 1.296875 -1.765625 C 1.296875 -1.410156 1.421875 -1.128906 1.671875 -0.921875 C 1.921875 -0.722656 2.265625 -0.625 2.703125 -0.625 Z M 2.703125 -0.625 "/></g></g></g><g fill="#ffffff" fill-opacity="1"><g transform="translate(242.790779, 56.67652)"><g><path d="M 0.90625 -5.984375 L 1.75 -5.984375 L 1.75 -5.0625 C 2.207031 -5.757812 2.789062 -6.109375 3.5 -6.109375 C 3.5625 -6.109375 3.625 -6.101562 3.6875 -6.09375 C 3.75 -6.09375 3.800781 -6.085938 3.84375 -6.078125 L 3.671875 -5.140625 C 3.566406 -5.160156 3.453125 -5.171875 3.328125 -5.171875 C 2.859375 -5.171875 2.476562 -5.023438 2.1875 -4.734375 C 1.894531 -4.453125 1.75 -4.0625 1.75 -3.5625 L 1.75 0 L 0.90625 0 Z M 0.90625 -5.984375 "/></g></g></g><g fill="#ffffff" fill-opacity="1"><g transform="translate(246.832546, 56.67652)"><g><path d="M 3.671875 0.125 C 3.210938 0.125 2.789062 0.046875 2.40625 -0.109375 C 2.03125 -0.265625 1.707031 -0.476562 1.4375 -0.75 C 1.175781 -1.03125 0.96875 -1.359375 0.8125 -1.734375 C 0.65625 -2.117188 0.578125 -2.535156 0.578125 -2.984375 C 0.578125 -3.441406 0.648438 -3.859375 0.796875 -4.234375 C 0.953125 -4.617188 1.160156 -4.945312 1.421875 -5.21875 C 1.679688 -5.5 1.988281 -5.71875 2.34375 -5.875 C 2.707031 -6.03125 3.101562 -6.109375 3.53125 -6.109375 C 3.9375 -6.109375 4.3125 -6.035156 4.65625 -5.890625 C 5.007812 -5.753906 5.3125 -5.554688 5.5625 -5.296875 C 5.8125 -5.046875 6.007812 -4.742188 6.15625 -4.390625 C 6.300781 -4.035156 6.375 -3.644531 6.375 -3.21875 C 6.375 -3.050781 6.359375 -2.894531 6.328125 -2.75 L 1.484375 -2.75 C 1.535156 -2.101562 1.757812 -1.59375 2.15625 -1.21875 C 2.5625 -0.851562 3.082031 -0.671875 3.71875 -0.671875 C 4.507812 -0.671875 5.164062 -0.976562 5.6875 -1.59375 L 6.234375 -1.125 C 5.921875 -0.707031 5.546875 -0.394531 5.109375 -0.1875 C 4.671875 0.0195312 4.191406 0.125 3.671875 0.125 Z M 5.453125 -3.515625 C 5.390625 -4.085938 5.179688 -4.523438 4.828125 -4.828125 C 4.472656 -5.140625 4.035156 -5.296875 3.515625 -5.296875 C 2.960938 -5.296875 2.507812 -5.132812 2.15625 -4.8125 C 1.8125 -4.488281 1.597656 -4.054688 1.515625 -3.515625 Z M 5.453125 -3.515625 "/></g></g></g><g fill="#ffffff" fill-opacity="1"><g transform="translate(253.720435, 56.67652)"><g/></g></g><g fill="#ffffff" fill-opacity="1"><g transform="translate(256.579558, 56.67652)"><g><path d="M 1.171875 -8.703125 L 5.65625 -8.703125 L 5.65625 -7.859375 L 2.078125 -7.859375 L 2.078125 -4.9375 L 4.8125 -4.9375 L 4.8125 -4.09375 L 2.078125 -4.09375 L 2.078125 -0.84375 L 5.71875 -0.84375 L 5.71875 0 L 1.171875 0 Z M 1.171875 -8.703125 "/></g></g></g><g fill="#ffffff" fill-opacity="1"><g transform="translate(263.07757, 56.67652)"><g><path d="M 0.90625 -5.984375 L 1.75 -5.984375 L 1.75 -5.0625 C 2.226562 -5.757812 2.847656 -6.109375 3.609375 -6.109375 C 3.929688 -6.109375 4.226562 -6.046875 4.5 -5.921875 C 4.78125 -5.804688 5.019531 -5.640625 5.21875 -5.421875 C 5.414062 -5.203125 5.566406 -4.941406 5.671875 -4.640625 C 5.785156 -4.347656 5.84375 -4.023438 5.84375 -3.671875 L 5.84375 0 L 5 0 L 5 -3.5625 C 5 -4.101562 4.851562 -4.53125 4.5625 -4.84375 C 4.28125 -5.164062 3.890625 -5.328125 3.390625 -5.328125 C 2.898438 -5.328125 2.503906 -5.164062 2.203125 -4.84375 C 1.898438 -4.519531 1.75 -4.09375 1.75 -3.5625 L 1.75 0 L 0.90625 0 Z M 0.90625 -5.984375 "/></g></g></g><g fill="#ffffff" fill-opacity="1"><g transform="translate(269.770521, 56.67652)"><g><path d="M 3.453125 2.5 C 4.085938 2.5 4.578125 2.390625 4.921875 2.171875 C 5.273438 1.953125 5.453125 1.648438 5.453125 1.265625 C 5.453125 0.878906 5.28125 0.578125 4.9375 0.359375 C 4.601562 0.140625 4.113281 0.03125 3.46875 0.03125 C 2.84375 0.03125 2.359375 0.132812 2.015625 0.34375 C 1.671875 0.5625 1.5 0.867188 1.5 1.265625 C 1.5 1.648438 1.664062 1.953125 2 2.171875 C 2.34375 2.390625 2.828125 2.5 3.453125 2.5 Z M 3.3125 -2.375 C 3.8125 -2.375 4.207031 -2.507812 4.5 -2.78125 C 4.789062 -3.0625 4.9375 -3.425781 4.9375 -3.875 C 4.9375 -4.320312 4.789062 -4.679688 4.5 -4.953125 C 4.207031 -5.222656 3.8125 -5.359375 3.3125 -5.359375 C 2.820312 -5.359375 2.425781 -5.222656 2.125 -4.953125 C 1.832031 -4.679688 1.6875 -4.320312 1.6875 -3.875 C 1.6875 -3.414062 1.832031 -3.050781 2.125 -2.78125 C 2.425781 -2.507812 2.820312 -2.375 3.3125 -2.375 Z M 3.453125 3.25 C 3.035156 3.25 2.648438 3.203125 2.296875 3.109375 C 1.953125 3.015625 1.65625 2.878906 1.40625 2.703125 C 1.164062 2.535156 0.976562 2.332031 0.84375 2.09375 C 0.71875 1.851562 0.65625 1.585938 0.65625 1.296875 C 0.65625 0.941406 0.742188 0.632812 0.921875 0.375 C 1.109375 0.125 1.378906 -0.078125 1.734375 -0.234375 C 1.453125 -0.328125 1.234375 -0.460938 1.078125 -0.640625 C 0.921875 -0.828125 0.84375 -1.039062 0.84375 -1.28125 C 0.84375 -1.488281 0.898438 -1.675781 1.015625 -1.84375 C 1.140625 -2.019531 1.304688 -2.160156 1.515625 -2.265625 C 1.304688 -2.460938 1.140625 -2.695312 1.015625 -2.96875 C 0.898438 -3.238281 0.84375 -3.539062 0.84375 -3.875 C 0.84375 -4.207031 0.898438 -4.507812 1.015625 -4.78125 C 1.140625 -5.050781 1.3125 -5.285156 1.53125 -5.484375 C 1.757812 -5.679688 2.023438 -5.832031 2.328125 -5.9375 C 2.628906 -6.050781 2.96875 -6.109375 3.34375 -6.109375 C 3.664062 -6.109375 3.957031 -6.066406 4.21875 -5.984375 L 6.3125 -5.984375 L 6.3125 -5.21875 L 5.34375 -5.21875 C 5.632812 -4.851562 5.78125 -4.40625 5.78125 -3.875 C 5.78125 -3.539062 5.71875 -3.234375 5.59375 -2.953125 C 5.476562 -2.679688 5.3125 -2.445312 5.09375 -2.25 C 4.875 -2.050781 4.613281 -1.894531 4.3125 -1.78125 C 4.007812 -1.675781 3.675781 -1.625 3.3125 -1.625 C 2.875 -1.625 2.476562 -1.707031 2.125 -1.875 C 1.96875 -1.84375 1.847656 -1.78125 1.765625 -1.6875 C 1.691406 -1.59375 1.65625 -1.484375 1.65625 -1.359375 C 1.65625 -1.148438 1.757812 -0.988281 1.96875 -0.875 C 2.175781 -0.769531 2.460938 -0.71875 2.828125 -0.71875 L 3.6875 -0.71875 C 4.5 -0.71875 5.140625 -0.539062 5.609375 -0.1875 C 6.078125 0.15625 6.3125 0.617188 6.3125 1.203125 C 6.3125 1.515625 6.242188 1.796875 6.109375 2.046875 C 5.972656 2.304688 5.773438 2.523438 5.515625 2.703125 C 5.265625 2.878906 4.960938 3.015625 4.609375 3.109375 C 4.265625 3.203125 3.878906 3.25 3.453125 3.25 Z M 3.453125 3.25 "/></g></g></g><g fill="#ffffff" fill-opacity="1"><g transform="translate(276.528451, 56.67652)"><g><path d="M 0.90625 -5.984375 L 1.75 -5.984375 L 1.75 0 L 0.90625 0 Z M 1.328125 -7.203125 C 1.148438 -7.203125 1.003906 -7.257812 0.890625 -7.375 C 0.773438 -7.5 0.71875 -7.648438 0.71875 -7.828125 C 0.71875 -8.003906 0.773438 -8.148438 0.890625 -8.265625 C 1.015625 -8.390625 1.164062 -8.453125 1.34375 -8.453125 C 1.507812 -8.453125 1.648438 -8.390625 1.765625 -8.265625 C 1.890625 -8.148438 1.953125 -8.003906 1.953125 -7.828125 C 1.953125 -7.648438 1.890625 -7.5 1.765625 -7.375 C 1.648438 -7.257812 1.503906 -7.203125 1.328125 -7.203125 Z M 1.328125 -7.203125 "/></g></g></g><g fill="#ffffff" fill-opacity="1"><g transform="translate(279.192635, 56.67652)"><g><path d="M 0.90625 -5.984375 L 1.75 -5.984375 L 1.75 -5.0625 C 2.226562 -5.757812 2.847656 -6.109375 3.609375 -6.109375 C 3.929688 -6.109375 4.226562 -6.046875 4.5 -5.921875 C 4.78125 -5.804688 5.019531 -5.640625 5.21875 -5.421875 C 5.414062 -5.203125 5.566406 -4.941406 5.671875 -4.640625 C 5.785156 -4.347656 5.84375 -4.023438 5.84375 -3.671875 L 5.84375 0 L 5 0 L 5 -3.5625 C 5 -4.101562 4.851562 -4.53125 4.5625 -4.84375 C 4.28125 -5.164062 3.890625 -5.328125 3.390625 -5.328125 C 2.898438 -5.328125 2.503906 -5.164062 2.203125 -4.84375 C 1.898438 -4.519531 1.75 -4.09375 1.75 -3.5625 L 1.75 0 L 0.90625 0 Z M 0.90625 -5.984375 "/></g></g></g><g fill="#ffffff" fill-opacity="1"><g transform="translate(285.885586, 56.67652)"><g><path d="M 3.671875 0.125 C 3.210938 0.125 2.789062 0.046875 2.40625 -0.109375 C 2.03125 -0.265625 1.707031 -0.476562 1.4375 -0.75 C 1.175781 -1.03125 0.96875 -1.359375 0.8125 -1.734375 C 0.65625 -2.117188 0.578125 -2.535156 0.578125 -2.984375 C 0.578125 -3.441406 0.648438 -3.859375 0.796875 -4.234375 C 0.953125 -4.617188 1.160156 -4.945312 1.421875 -5.21875 C 1.679688 -5.5 1.988281 -5.71875 2.34375 -5.875 C 2.707031 -6.03125 3.101562 -6.109375 3.53125 -6.109375 C 3.9375 -6.109375 4.3125 -6.035156 4.65625 -5.890625 C 5.007812 -5.753906 5.3125 -5.554688 5.5625 -5.296875 C 5.8125 -5.046875 6.007812 -4.742188 6.15625 -4.390625 C 6.300781 -4.035156 6.375 -3.644531 6.375 -3.21875 C 6.375 -3.050781 6.359375 -2.894531 6.328125 -2.75 L 1.484375 -2.75 C 1.535156 -2.101562 1.757812 -1.59375 2.15625 -1.21875 C 2.5625 -0.851562 3.082031 -0.671875 3.71875 -0.671875 C 4.507812 -0.671875 5.164062 -0.976562 5.6875 -1.59375 L 6.234375 -1.125 C 5.921875 -0.707031 5.546875 -0.394531 5.109375 -0.1875 C 4.671875 0.0195312 4.191406 0.125 3.671875 0.125 Z M 5.453125 -3.515625 C 5.390625 -4.085938 5.179688 -4.523438 4.828125 -4.828125 C 4.472656 -5.140625 4.035156 -5.296875 3.515625 -5.296875 C 2.960938 -5.296875 2.507812 -5.132812 2.15625 -4.8125 C 1.8125 -4.488281 1.597656 -4.054688 1.515625 -3.515625 Z M 5.453125 -3.515625 "/></g></g></g><g fill="#ffffff" fill-opacity="1"><g transform="translate(292.773475, 56.67652)"><g><path d="M 3.671875 0.125 C 3.210938 0.125 2.789062 0.046875 2.40625 -0.109375 C 2.03125 -0.265625 1.707031 -0.476562 1.4375 -0.75 C 1.175781 -1.03125 0.96875 -1.359375 0.8125 -1.734375 C 0.65625 -2.117188 0.578125 -2.535156 0.578125 -2.984375 C 0.578125 -3.441406 0.648438 -3.859375 0.796875 -4.234375 C 0.953125 -4.617188 1.160156 -4.945312 1.421875 -5.21875 C 1.679688 -5.5 1.988281 -5.71875 2.34375 -5.875 C 2.707031 -6.03125 3.101562 -6.109375 3.53125 -6.109375 C 3.9375 -6.109375 4.3125 -6.035156 4.65625 -5.890625 C 5.007812 -5.753906 5.3125 -5.554688 5.5625 -5.296875 C 5.8125 -5.046875 6.007812 -4.742188 6.15625 -4.390625 C 6.300781 -4.035156 6.375 -3.644531 6.375 -3.21875 C 6.375 -3.050781 6.359375 -2.894531 6.328125 -2.75 L 1.484375 -2.75 C 1.535156 -2.101562 1.757812 -1.59375 2.15625 -1.21875 C 2.5625 -0.851562 3.082031 -0.671875 3.71875 -0.671875 C 4.507812 -0.671875 5.164062 -0.976562 5.6875 -1.59375 L 6.234375 -1.125 C 5.921875 -0.707031 5.546875 -0.394531 5.109375 -0.1875 C 4.671875 0.0195312 4.191406 0.125 3.671875 0.125 Z M 5.453125 -3.515625 C 5.390625 -4.085938 5.179688 -4.523438 4.828125 -4.828125 C 4.472656 -5.140625 4.035156 -5.296875 3.515625 -5.296875 C 2.960938 -5.296875 2.507812 -5.132812 2.15625 -4.8125 C 1.8125 -4.488281 1.597656 -4.054688 1.515625 -3.515625 Z M 5.453125 -3.515625 "/></g></g></g><g fill="#ffffff" fill-opacity="1"><g transform="translate(299.661364, 56.67652)"><g><path d="M 0.90625 -5.984375 L 1.75 -5.984375 L 1.75 -5.0625 C 2.207031 -5.757812 2.789062 -6.109375 3.5 -6.109375 C 3.5625 -6.109375 3.625 -6.101562 3.6875 -6.09375 C 3.75 -6.09375 3.800781 -6.085938 3.84375 -6.078125 L 3.671875 -5.140625 C 3.566406 -5.160156 3.453125 -5.171875 3.328125 -5.171875 C 2.859375 -5.171875 2.476562 -5.023438 2.1875 -4.734375 C 1.894531 -4.453125 1.75 -4.0625 1.75 -3.5625 L 1.75 0 L 0.90625 0 Z M 0.90625 -5.984375 "/></g></g></g></svg>